<mxfile host="app.diagrams.net" modified="2022-11-25T05:03:32.221Z" agent="5.0 (Windows NT 10.0; Win64; x64) AppleWebKit/537.36 (KHTML, like Gecko) Chrome/107.0.0.0 Safari/537.36" version="20.6.0" etag="HBr8oZRceGms0DlYtWc4" type="github">
  <diagram id="pnbUqi_Hy17aBZIksYAF" name="Page-1">
    <mxGraphModel dx="339" dy="219" grid="1" gridSize="10" guides="1" tooltips="1" connect="1" arrows="1" fold="1" page="1" pageScale="1" pageWidth="850" pageHeight="1100" math="0" shadow="0">
      <root>
        <mxCell id="0" />
        <mxCell id="1" parent="0" />
        <mxCell id="7pWeG--zb2RyeEYXEQvc-3" value="type of" style="edgeStyle=orthogonalEdgeStyle;rounded=0;orthogonalLoop=1;jettySize=auto;html=1;exitX=0.5;exitY=1;exitDx=0;exitDy=0;" edge="1" parent="1" source="7pWeG--zb2RyeEYXEQvc-1" target="7pWeG--zb2RyeEYXEQvc-2">
          <mxGeometry relative="1" as="geometry" />
        </mxCell>
        <mxCell id="7pWeG--zb2RyeEYXEQvc-6" style="edgeStyle=orthogonalEdgeStyle;rounded=0;orthogonalLoop=1;jettySize=auto;html=1;exitX=1;exitY=0.5;exitDx=0;exitDy=0;entryX=0;entryY=0.5;entryDx=0;entryDy=0;" edge="1" parent="1" source="7pWeG--zb2RyeEYXEQvc-1" target="7pWeG--zb2RyeEYXEQvc-4">
          <mxGeometry relative="1" as="geometry" />
        </mxCell>
        <mxCell id="7pWeG--zb2RyeEYXEQvc-7" value="category" style="edgeLabel;html=1;align=center;verticalAlign=middle;resizable=0;points=[];" vertex="1" connectable="0" parent="7pWeG--zb2RyeEYXEQvc-6">
          <mxGeometry x="-0.7846" relative="1" as="geometry">
            <mxPoint x="19" as="offset" />
          </mxGeometry>
        </mxCell>
        <mxCell id="7pWeG--zb2RyeEYXEQvc-1" value="Wetpaint" style="rounded=0;whiteSpace=wrap;html=1;" vertex="1" parent="1">
          <mxGeometry x="80" y="210" width="60" height="30" as="geometry" />
        </mxCell>
        <mxCell id="7pWeG--zb2RyeEYXEQvc-2" value="organization" style="text;html=1;strokeColor=none;fillColor=none;align=center;verticalAlign=middle;whiteSpace=wrap;rounded=0;" vertex="1" parent="1">
          <mxGeometry x="80" y="280" width="60" height="10" as="geometry" />
        </mxCell>
        <mxCell id="7pWeG--zb2RyeEYXEQvc-4" value="Publishing" style="rounded=0;whiteSpace=wrap;html=1;" vertex="1" parent="1">
          <mxGeometry x="200" y="210" width="60" height="30" as="geometry" />
        </mxCell>
      </root>
    </mxGraphModel>
  </diagram>
</mxfile>
